<svg width="22" height="20" viewBox="0 0 22 20" fill="none" xmlns="http://www.w3.org/2000/svg">
<path fill-rule="evenodd" clip-rule="evenodd" d="M1 0H21C21.5128 0 21.9355 0.38604 21.9933 0.883379L22 1V7C22 7.51284 21.614 7.93551 21.1166 7.99327L21 8V19C21 19.5523 20.5523 20 20 20H2C1.44772 20 1 19.5523 1 19V8C0.487164 8 0.0644928 7.61396 0.00672773 7.11662L0 7V1C0 0.487164 0.38604 0.0644928 0.883379 0.00672773L1 0H21H1ZM19 8H3V18H6V13C6 12.4477 6.44772 12 7 12H15C15.5523 12 16 12.4477 16 13V18H19V8ZM10 14H8V18H10V14ZM14 14H12V18H14V14ZM11.6419 2.08378C10.3004 2.08378 9.60538 3.21059 9.60538 4.31921C9.60538 5.50437 10.381 5.90436 11.1758 5.90436C11.4611 5.90436 11.6493 5.87326 11.8278 5.80487C12.02 5.73618 12.0722 5.57291 12.0822 5.53317L12.0843 5.52434L12.2168 4.91536C11.8786 5.16887 11.6279 5.20821 11.3984 5.20821C10.8411 5.20821 10.5162 4.84263 10.5162 4.27086C10.5162 3.68125 10.8906 2.801 11.7482 2.801C11.972 2.801 12.3746 2.86039 12.6057 3.07142C12.6057 3.07142 12.6924 2.77152 12.7172 2.64672C12.7416 2.5248 12.697 2.32141 12.3295 2.20026C12.0912 2.12168 11.9052 2.08378 11.6419 2.08378ZM14.3335 2.16022C14.016 2.1575 13.7332 2.16669 13.4661 2.20984L13.2684 2.24892L12.4813 5.8712H12.9777C13.1047 5.8712 13.3443 5.82039 13.4261 5.44785C13.491 5.15109 13.6001 4.64746 13.6001 4.64746C13.6853 4.65324 13.8033 4.66912 13.9405 4.66912C15.2803 4.66912 15.7462 3.78921 15.7462 3.19119C15.7462 2.53854 15.3022 2.16413 14.3335 2.16022ZM7.97405 2.1415C7.68913 2.1415 7.40986 2.16004 7.1489 2.19221L6.89452 2.22875L6.2952 4.94597C6.2952 4.94597 6.08801 5.64815 6.67702 5.79461C6.84233 5.83565 6.95494 5.85094 7.1382 5.86139C8.70194 5.94975 9.15407 5.23185 9.15407 4.68769C9.15407 4.14685 8.78056 3.91075 8.47779 3.8879C8.85985 3.82282 9.36459 3.53566 9.36459 3.00731C9.36459 2.44301 8.8104 2.1415 7.97405 2.1415ZM17.061 2.4274C17.4601 2.61091 17.4282 3.58682 17.0629 4.08434C16.7256 4.66358 15.784 5.11131 15.7925 5.09687C15.8364 5.18395 15.8584 5.20918 15.9491 5.32855C15.9772 5.36899 16.3062 5.75453 16.7923 5.54664C17.0422 5.45641 17.9242 4.85474 18.2475 4.32689C18.5427 3.8445 18.2221 3.43653 18.1951 3.39907C18.1999 3.4028 17.9786 3.11191 17.7226 2.89008C17.466 2.65636 17.1817 2.4895 17.061 2.4274ZM4.76859 2.4274C5.1676 2.61091 5.13577 3.58682 4.77041 4.08434C4.43315 4.66358 3.4915 5.11131 3.50006 5.09687C3.54394 5.18395 3.56597 5.20918 3.65664 5.32855C3.68473 5.36899 4.01377 5.75453 4.4998 5.54664C4.74972 5.45641 5.63178 4.85474 5.955 4.32689C6.25029 3.8445 5.92965 3.43653 5.90264 3.39907C5.90746 3.4028 5.68613 3.11191 5.43015 2.89008C5.17359 2.65636 4.88926 2.4895 4.76859 2.4274ZM7.31082 4.19443H7.5831C7.96898 4.19443 8.28921 4.30402 8.28073 4.66764C8.27151 5.07791 7.86002 5.24494 7.41023 5.24494C7.33975 5.24494 7.27268 5.24494 7.20959 5.2429C7.10564 5.23348 7.10811 5.1371 7.11182 5.10523L7.11335 5.09507L7.31082 4.19443H7.5831H7.31082ZM14.4018 2.78084C14.713 2.78084 14.9715 2.87489 14.9715 3.25729C14.9715 3.64597 14.6822 4.0214 14.1191 4.02582C14.0819 4.02582 14.0482 4.02488 14.0171 4.02352C13.7932 4.02352 13.824 3.85389 13.8337 3.8162L13.8357 3.80884L14.0546 2.79885C14.1236 2.78849 14.2429 2.78084 14.4018 2.78084ZM16.2534 2.71785C16.2534 2.71785 16.1395 2.85999 16.0529 3.05896C16.1123 3.09209 16.2261 3.14978 16.2261 3.14978C16.4596 3.2643 16.7759 3.46523 17.0758 3.79759C17.2837 3.27985 17.2499 2.57988 16.9183 2.42738C16.6147 2.28176 16.2695 2.69636 16.2534 2.71785ZM3.96096 2.71785C3.96096 2.71785 3.84702 2.85999 3.76042 3.05896C3.79607 3.07884 3.85129 3.10756 3.88977 3.12735L3.93362 3.14978C4.16716 3.2643 4.48348 3.46523 4.78335 3.79759C4.99121 3.27985 4.95747 2.57988 4.62585 2.42738C4.32225 2.28176 3.97709 2.69636 3.96096 2.71785ZM7.98469 2.75235C8.30051 2.75235 8.52292 2.86543 8.51652 3.12642C8.50934 3.41404 8.24898 3.58862 7.86083 3.61798L7.74068 3.6224H7.56431C7.45758 3.6224 7.46588 3.51833 7.47162 3.48364L7.47381 3.47254L7.62498 2.77248C7.68873 2.76229 7.84033 2.75235 7.98469 2.75235Z" fill="white"/>
</svg>
